<?xml version="1.0" encoding="UTF-8"?>
<svg enable-background="new 0 0 1588 1673.271" version="1.1" viewBox="0 0 1588 1673.271" xmlns="http://www.w3.org/2000/svg">
 <path d="m864.36 1636.6c-6.026-21.292-14.366-27.235-21.72-84.951-2.022-15.867-9.024-40.581 2.363-63.847 1.13-2.308 1.821-4.819 3.441-6.9 0.581-0.747 1.073-1.663 1.29-2.578 2.083-8.801 14.488-29.009-4.642-45.606-7.204-6.25-12.527-1.741-21.069-1.551-139.77 3.098-308.31-52.734-311.18-53.501-20.884-5.588-20.936-8.982-25.922-10.847-1.789-0.669-3.336-1.989-5.409-1.841-1.046 0.075-1.787-0.538-2.592-1.109-7.351-5.216-10.97-3.064-14.479-3.712-4.378-0.809-4.384-0.824-5.611 3.222-0.749 2.469-1.764 4.902-2.139 7.429-2.725 18.368-56.299 16.01-90.666-8.651-8.937-6.413-5.406-12.139-11.376-13.561-4.046-0.963 0.702-8.157-4.76-7.231-6.533 1.107-13.216 0.519-19.736 1.852-23.72 4.85-21.989-1.493-39.681 3.833-3.126 0.941-60.24 12.428-74.323 13.882-12.654 1.306-26.011 13.154-44.873-1.91-10.344-8.261-20.898-16.105-32.689-22.307-76.057-39.997-52.008-31.477-73.398-63.155-0.676-1.002-20.93-33.428-23.944-50.418-2.448-13.801-15.682-27.153 3.581-33.004 4.54-1.379 1.502-3.264 0.186-8.302-3.562-13.634 12.596-17.714 20.789-12.308 5.815 3.837 16.739-1.484 29.061 11.619 60.345 64.167 46.395 42.822 84.008 68.841 3.797 2.627 3 0.435 45.279-3.672 12.469-1.211 9.008-4.16 13.391-6.198 14.618-6.804 17.602-5.629 29.418-11.396 1.048-0.512 2.074-0.907 3.17-1.021 33.496-3.46 64.858-30.512 92.017-1.495 8.221 8.783 18.403 6.668 40.022 12.258 3.865 0.999 4.135 0.559 3.458-3.447-2.736-16.19 24.334-7.685 43.53-4.206 3.623 0.656 8.435 2.509 9.054 6.144 0.631 3.707 2.507 6.958 3.707 10.442 2.909 8.443 119.29 9.657 127.25 9.208 132.87-7.505 111.7-7.898 152.12-12.659 4.304-0.507 7.602-3.403 11.162-5.583 2.678-1.64-0.794-2.78 2.744-9.388 14.92-27.862 25.096-41.151 25.096-41.151 7.266-3.849 6.024-11.909 8.862-17.939 0.859-1.825-0.303-3.385-1.379-4.862-7.173-9.852-9.615-20.803-0.093-27.371 14.23-9.817 6.863-18.319 12.184-46.222 2.328-12.211-3.347-12.256-1.797-38.425 1.577-26.605-0.761-46.586-1.235-76.419-0.392-24.656 0.496-56.948-3.736-76.736-2.117-9.898 8.411-34.464 8.142-53.208-0.23-15.993 8.176-37.436 12.591-46.812 3.499-7.432 1.75-13.929 6.67-45.355 0.55-3.516 0.189-3.005-4.648-17.613-1.597-4.822-2.866-1.437-10.405-3.891-6.589-2.145-1.289-8.652 1.48-10.156 6.168-3.349 10.454-9.013 16.051-13.084 4.599-3.345-0.417-6.294 0.781-9.772 1.478-4.295 1.937-8.814 3.014-13.194 1.409-5.728 8.514-16.184 8.526-19.893 0.031-9.816 5.814-12.036 5.718-18.711-0.016-1.108 0.136-2.299 0.546-3.318 3.084-7.669 4.662-15.757 6.707-23.713 1.495-5.812 1.541-6.203-3.862-9.2-10.735-5.955-21.936-10.83-34.129-13.021-6.805-1.223-17.816 12.392-21.77 18.065-23.017 33.032-24.617 28.392-39.631 44.698-4.898 5.319-5.145 9.094-24.921 11.248-5.877 0.64-11.793 0.668-17.551-2.05-2.909-1.374-12.538-3.034-14.674-5.731-4.11-5.19-9.867-8.833-13.542-14.416-5.228-7.942-7.902-2.139-19.951-7.396-2.846-1.242-27.502-10.49-28.288-22.508-0.148-2.257-1.378-3.008-3.506-2.999-6.446 0.028-12.805-1.16-19.302-1-9.084 0.223-15.998-6.279-17.083-15.131-0.543-4.43-2.58-5.579-6.543-3.542-10.687 5.494-31.062 23.513-44.456-24.802-7.471-26.95-4.88-39.532-14.955-54.711-13.943-21.006-55.036-9.487-55.754-21.011-0.306-4.916-4.159-5.111-16.488-28.836-16.201-31.176-26.196-34.615-37.162-74.992-7.027-25.873-7.498-4.359-37.801-15.733-31.327-11.759-46.447-42.577-47.879-73.629-0.286-6.208-0.406-10.457 10.481-35.309 3.762-8.589 7.039-8.399 10.665-22.001 5.057-18.971 4.487-25.232 16.495-37.21 7.38-7.361 5.188-8.041 15.02-37.004 2.207-6.501 5.769-2.595 7.666-6.853 4.388-9.846 9.998-15.387 12.985-17.074 13.27-7.492 25.646-23.653 37.408-37.523 16.052-18.928 18.464-12.619 26.958-22.241 6.696-7.585 10.517 0.128 17.243-11.84 1.859-3.307 6.182-8.312 11.167-9.252 6.806-1.284 30.997-21.747 47.9-19.748 6.216 0.735 15.836-7.237 30.616-9.568 24.793-3.91 28.805-1.277 33.149-0.885 5.649 0.509 25.686 0.44 32.363 7.439 4.782 5.013 4.925-0.324 22.774 8.121 1.016 0.481 2.015 1.356 3.043 1.389 4.865 0.157 8.636 3.272 13.05 4.659 9.059 2.846 21.334 17.311 33.758 21.177 15.035 4.678 18.902 9.597 21.954 14.532 8.339 13.486 50.031 53.022 50.395 66.2 0.026 0.955 0.978 2.06 1.78 2.788 4.208 3.815 6.851 8.873 10.552 13.078 5.7 6.476 2.125 6.12 5.849 10.333 2.429 2.748 5.358 5.146 6.097 9.073 0.132 0.703 0.827 1.432 1.453 1.888 3.927 2.858 5.538 7.927 9.934 10.34 0.517 0.284 1.034 0.921 1.172 1.486 1.761 7.18 13.894 20.609 24.217 35.524 7.4 10.691 1.708 6.895 6.488 12.644 7.478 8.993 17.256 28.241 22.535 33.821 0.495 0.523 9.541 12.618 9.541 12.618 2.521 8.94 10.214 14.67 14.126 22.857 2.297 4.808 6.024 9.121 9.963 12.988 7.328 7.195-2.501 3.601 20.877 21.55 6.256 4.803 12.246 9.994 18.821 14.353 36.737 24.35 39.504 32.744 46.304 27.451 18.857-14.677 37.342-23.208 42.84-26.131 2.772-1.474 4.944 0.039 6.13 2.728 5.662 12.843 25.158 30.995 30.933 54.302 0.822 3.318 2.19 6.406 4.85 8.763 4.39 3.89-1.153 5.909 6.439 7.647 2.479 0.567 8.584-2.377 21.423 7.251 12.851 9.637 39.865 16.072 78.029 39.428 31.354 19.188 84.399 58.54 84.981 58.859 9.558 5.234 7.904 11.002 15.533 15.99 1.755 1.148 24.793 20.768 29.589 29.657 97.326 180.42 88.117 220.49 142.34 532.71 7.889 45.42 12.061 160.83 10.502 194.48-1.243 26.822 0.664 25.183 13.87 86.748 2.798 13.043 12.287 51.498 12.574 52.499 12.577 43.958 14.615 40.968 16.439 57.018 1.937 17.042 4.091 10.581 4.204 19.639 0.075 5.996 0.749 11.913 3.111 17.477 0.836 1.969-0.125 3.782 0.162 5.706 5.312 35.686-3.119 16.494 27.63 56.646 2.726 3.559 6.144 6.652 7.834 10.959-229.63-4e-3 -459.26-4e-3 -688.88-4e-3zm-476.94-1462.2c-1.255-0.307-3.36 2.303-2.305 3.162 1.346 1.095 3.455-1.889 2.305-3.162zm-19.597 43.959c-0.158-0.254-0.302-0.703-0.465-0.71-1.804-0.075-0.294 4.472 0.465 0.71z"/>
</svg>
